<?xml version="1.0"?>
<svg width="600" height="600" xmlns="http://www.w3.org/2000/svg" xmlns:svg="http://www.w3.org/2000/svg">
 <g>
  <title>Layer 1</title>
  <path id="svg_5" fill="#000000" d="m8.795815,40.908204c-0.000451,-0.011076 5.328917,-1.200461 5.33125,-1.200976c4.44583,-0.989579 8.897494,-1.957092 13.352736,-2.910122c17.822585,-3.812464 35.705124,-7.391736 53.639248,-10.732336c4.484177,-0.835268 8.971791,-1.654995 13.462953,-2.457892c0.0056,-0.001002 5.38464,-0.959856 5.39136,-0.955377c1.181379,0.786898 1.364944,2.372987 1.979342,3.589891c1.354086,2.681982 2.523845,5.43951 3.785759,8.159272c2.523845,5.43951 5.047674,10.87902 7.571519,16.31853c0.630965,1.359881 1.261915,2.719762 1.89288,4.079629c0.630965,1.359881 1.656517,2.617141 1.89288,4.079629c0.102781,0.63595 -0.385611,1.345198 -0.956093,1.716631c-0.678536,0.441783 -1.624082,0.327227 -2.435889,0.491799c-2.435267,0.493688 -4.869149,0.9932 -7.301678,1.498179c-7.296436,1.514679 -14.580769,3.078601 -21.85359,4.686456c-2.423942,0.535876 -4.846608,1.076688 -7.267983,1.622309c-0.807094,0.181874 -1.763544,0.079553 -2.420846,0.54721c-0.542169,0.385743 -0.966795,1.13197 -0.798367,1.743148c0.415323,1.507037 1.606472,2.735776 2.409723,4.103671c1.606472,2.735776 3.212959,5.471551 4.819431,8.207327c4.016195,6.839446 8.032391,13.678893 12.048586,20.518339c0.803236,1.367895 1.606472,2.735776 2.409723,4.103671c1.23858,2.109257 1.582033,4.749352 4.616794,4.952949c0.733201,0.049186 1.413231,-0.373149 2.120064,-0.558973c1.413278,-0.371561 2.828578,-0.741519 4.243084,-1.109116c5.660858,-1.471103 11.331501,-2.910465 17.012427,-4.314652c2.130798,-0.526688 4.263059,-1.048425 6.396813,-1.564924c0.711314,-0.172185 1.473667,-0.812013 2.134438,-0.514796c1.673224,0.75261 3.562899,5.599674 3.978736,6.467585c3.912621,8.166055 7.825242,16.332111 11.737864,24.498166c0.652106,1.361012 1.304212,2.722023 1.956303,4.083021c0.652106,1.361012 1.49736,2.656853 1.956303,4.083021c0.243706,0.757304 0.53254,1.674557 0.119255,2.366819c-0.310691,0.520434 -1.232606,0.352771 -1.848637,0.529965c-1.231595,0.354259 -2.463517,0.711009 -3.693666,1.069504c-5.535816,1.613279 -11.05718,3.26846 -16.565182,4.960362c-1.223304,0.375768 -2.447199,0.753755 -3.66918,1.133144c-0.611162,0.189745 -1.473776,0.077764 -1.833003,0.570607c-1.236729,1.696739 2.124685,5.776754 2.340015,6.143464c2.409723,4.103671 4.819431,8.207327 7.229155,12.310998c9.638862,16.414669 19.277741,32.829337 28.916603,49.244006c1.606472,2.735776 3.212959,5.471551 4.819431,8.207327c0.277307,0.47225 3.323954,4.32872 2.571976,6.065499c-0.175973,0.406422 -0.847089,0.397893 -1.270331,0.597368c-0.845985,0.398723 -1.692685,0.799563 -2.537083,1.201119c-3.801938,1.807975 -7.588802,3.643083 -11.355535,5.51238c-0.800327,0.397177 -1.709797,0.850695 -2.507682,1.252008c-0.417237,0.209865 -0.870859,0.895015 -1.250512,0.631599c-1.172108,-0.813273 -1.754444,-2.167158 -2.575865,-3.286549c-1.98054,-2.698969 -3.809405,-5.489554 -5.714107,-8.234317c-6.666451,-9.606706 -13.332902,-19.213411 -19.999368,-28.820131c-38.094018,-54.895485 -114.215737,-163.059395 -114.282069,-164.686441l0.000016,0zm113.543065,-22.028081c0.124995,-0.540312 1.183013,-0.190403 1.774636,-0.285068c1.774885,-0.283994 3.550392,-0.564754 5.326521,-0.842108c8.289895,-1.29451 16.593494,-2.515965 24.912433,-3.642196c2.971743,-0.402314 5.945446,-0.792451 8.921202,-1.168834c0.595217,-0.075288 1.345032,-0.59973 1.785868,-0.224204c0.692024,0.589483 0.591576,1.64794 0.861448,2.479286c0.854821,2.633226 1.607281,5.30001 2.41005,7.947117c2.41005,7.947117 4.820085,15.894234 7.230135,23.841337c11.782433,38.852563 23.564881,77.705112 35.347313,116.557676c3.481182,11.479164 6.962348,22.958329 10.44353,34.437493c1.071132,3.532047 2.142263,7.064095 3.213395,10.596156c0.267787,0.883008 0.535558,1.766031 0.803345,2.649039c0.267787,0.883008 0.828453,1.732601 0.803345,2.649039c-0.007856,0.287085 -0.589367,0.189601 -0.883709,0.285254c-0.588325,0.191204 -1.176837,0.385099 -1.763435,0.580725c-2.641108,0.880776 -5.265291,1.80424 -7.875925,2.758701c-2.610369,0.954375 -5.207111,1.940162 -7.792559,2.950235c-0.574371,0.224391 -1.148618,0.450184 -1.721884,0.67695c-0.286703,0.113412 -0.660475,0.562078 -0.859705,0.341094c-0.619967,-0.687654 -0.727321,-1.656826 -1.077712,-2.490034c-1.117847,-2.658112 -2.183099,-5.336445 -3.274329,-8.003902c-3.274329,-8.003902 -6.548658,-16.007818 -9.822987,-24.011719c-22.920319,-56.027341 -68.975977,-167.152633 -68.760958,-168.082022l-0.000016,-0.000014zm120.30623,190.635575c-0.615798,-1.008741 -0.505737,-2.266602 -0.758605,-3.399903c-1.011473,-4.533204 -2.022946,-9.066394 -3.034435,-13.599598c-4.551644,-20.399404 -9.103289,-40.798793 -13.654933,-61.198197c-6.827459,-30.599099 -13.654933,-61.198197 -20.482392,-91.797296c-1.770078,-7.933107 -3.540171,-15.8662 -5.310249,-23.799307c-0.036215,-0.162297 -1.436597,-5.987163 -1.16979,-6.436431c0.007794,-0.013123 4.630111,-0.342038 4.638931,-0.342668c6.187207,-0.432438 12.382845,-0.771929 18.58413,-0.975712c5.425335,-0.178282 10.855928,-0.25533 16.284374,-0.175477c4.660243,0.068562 9.334658,0.182031 13.955171,0.785853c15.090161,1.972032 29.415199,8.262108 39.904838,18.532927c16.555179,16.209826 21.726246,39.264323 22.43269,60.825019c0.105659,3.224712 0.113966,6.451843 0.048909,9.677314c-0.08668,4.297494 -0.310364,8.591925 -0.626858,12.880031c-0.471341,6.386315 -1.137044,12.762312 -2.035936,19.109945c-1.299063,9.173409 -3.103847,18.29663 -5.533,27.275385c-2.874702,10.625665 -6.613544,21.230393 -12.612316,30.741432c-3.034995,4.811975 -6.658424,9.467907 -11.386819,12.998237c-3.409623,2.545702 -7.450039,4.346837 -11.747555,5.191679c-3.142178,0.617718 -6.411762,0.726164 -9.597778,1.085375c-5.995724,0.675976 -17.701152,2.944468 -17.898407,2.621362l0.000031,0.000029zm16.947666,-48.01262c0.097585,0.173473 0.424035,-0.020965 0.636083,-0.030982c0.635616,-0.030024 1.272571,-0.047769 1.907191,-0.09352c2.811295,-0.202638 5.646391,-0.934598 8.031068,-2.350391c1.904562,-1.130739 3.303855,-2.842576 4.39255,-4.644312c1.965979,-3.253606 3.068441,-6.900138 3.878164,-10.525877c1.500922,-6.720811 2.044523,-13.607826 2.265516,-20.454571c0.232101,-7.190629 0.11059,-14.396685 -0.236316,-21.582549c-0.348182,-7.21241 -0.941734,-14.448976 -2.310723,-21.564789c-0.966842,-5.025461 -2.299273,-10.050006 -4.4661,-14.761162c-1.992689,-4.332555 -4.784834,-8.528429 -8.785582,-11.534303c-3.114037,-2.339658 -6.955208,-3.844663 -10.884007,-4.558548c-1.821165,-0.330919 -3.651275,-0.443071 -5.503288,-0.487291c-0.009163,-0.000215 -1.81908,-0.040857 -1.828321,-0.036134c-0.7435,0.379017 -0.264022,1.840117 -0.226034,2.159616c0.175071,1.472863 0.350126,2.945727 0.525198,4.41859c0.816972,6.873363 1.633929,13.746725 2.450901,20.620102c3.384577,28.475374 9.906976,84.987487 10.153731,85.426107l-0.000031,0.000014zm59.939659,47.331234c-0.224509,-1.03888 0.294155,-2.101071 0.441224,-3.151599c0.735379,-5.252671 1.470758,-10.505327 2.206138,-15.757997c2.647362,-18.909597 5.294708,-37.819193 7.94207,-56.728776c3.823966,-27.313852 7.647916,-54.627719 11.471881,-81.941571c1.029534,-7.353727 2.059052,-14.707469 3.088586,-22.061196c0.019368,-0.138369 0.683841,-5.58711 1.084386,-5.888363c0.014078,-0.01059 4.478141,1.135333 4.488252,1.137952c5.976512,1.543801 11.920853,3.193558 17.825199,4.956927c5.904237,1.76334 11.768307,3.640822 17.582255,5.642191c5.123387,1.763655 10.192108,3.596789 14.970051,6.070394c10.94505,5.666391 20.203343,14.016309 25.83637,24.402543c8.892781,16.396609 8.128467,35.614771 3.610564,53.028722c-0.778984,3.00254 -1.681111,5.977532 -2.676748,8.925148c-1.329227,3.935178 -2.831751,7.819896 -4.455164,11.660108c-1.615728,3.822038 -3.357167,7.598281 -5.182921,11.339178c-2.258982,4.628556 -4.64114,9.207382 -7.162138,13.720122c-3.894638,6.971648 -8.140585,13.775189 -12.800797,20.338541c-3.694304,5.202998 -7.649316,10.259384 -12.018189,15.003269c-3.120772,3.388641 -6.4556,6.630311 -10.153917,9.492507c-4.447448,3.441976 -9.445124,6.570035 -15.043352,8.168502c-4.861511,1.388102 -9.95114,1.23472 -14.77891,-0.197143c-3.052309,-0.905276 -5.948121,-2.255626 -8.940165,-3.316286c-5.645271,-2.001226 -17.256086,-4.479639 -17.334661,-4.843186l-0.000016,0.000014zm31.814687,-34.306938c0.031175,0.193666 0.394026,0.148058 0.590845,0.22253c0.589694,0.223146 1.175079,0.457224 1.770607,0.667147c2.550555,0.89905 5.370001,1.420258 8.106143,1.122883c2.386653,-0.25938 4.506796,-1.44636 6.302635,-2.857817c2.90065,-2.279796 5.139674,-5.198233 7.116838,-8.174041c3.649299,-5.492531 6.493247,-11.413722 9.044268,-17.395991c2.507806,-5.880935 4.747079,-11.86422 6.791088,-17.89453c2.206355,-6.509329 4.182601,-13.11836 5.394269,-19.852151c0.860857,-4.784169 1.385401,-9.674338 1.007273,-14.524064c-0.352631,-4.522628 -1.545491,-9.127643 -4.227404,-12.983397c-2.143243,-3.08132 -5.254418,-5.573515 -8.687499,-7.385468c-1.608759,-0.849092 -3.299779,-1.513248 -5.024137,-2.133628c-0.005663,-0.002032 -1.700557,-0.610191 -1.707401,-0.609403c-0.820535,0.093978 -0.870159,1.484942 -0.951799,1.804755c-0.340342,1.333249 -0.680683,2.666484 -1.021025,3.999733c-1.588271,6.2218 -3.176526,12.4436 -4.764797,18.6654c-6.579958,25.776019 -19.812583,76.876499 -19.739873,77.32807l-0.000031,-0.000029zm126.693429,-90.67842c0.69361,-0.278513 1.186186,0.864934 1.777218,1.299776c1.773096,1.304513 3.533933,2.623137 5.281128,3.956915c6.406069,4.890283 12.631373,9.983275 18.609331,15.313409c1.630258,1.453601 3.24219,2.924619 4.834116,4.413753c0.530642,0.496378 1.539844,0.800178 1.585253,1.495116c0.056641,0.866594 -0.848085,1.553218 -1.337503,2.295509c-1.093159,1.657943 -2.355401,3.216412 -3.533109,4.824611c-4.710801,6.43281 -9.421603,12.865635 -14.132404,19.298445c-18.843205,25.731255 -37.686411,51.462524 -56.529632,77.193779c-1.766547,2.412313 -3.533109,4.824611 -5.299655,7.236924c-0.588854,0.804099 -1.177708,1.608199 -1.766547,2.412313c-0.588854,0.804099 -1.41978,1.496748 -1.766547,2.412313c-0.155641,0.410958 0.150679,0.876268 0.376106,1.258862c0.222533,0.377672 0.623234,0.639914 0.932385,0.961874c0.927407,0.965881 1.840128,1.943711 2.73636,2.934207c3.287785,3.63361 6.329096,7.441752 9.110445,11.417199c0.757843,1.0832 1.498262,2.176703 2.221632,3.279665c0.241123,0.367668 0.615409,0.687182 0.717676,1.106139c0.42377,1.736236 -0.944674,2.326363 -2.117015,3.581762c-0.672158,0.719781 -1.344332,1.439563 -2.01649,2.159358c-3.360822,3.598921 -6.721645,7.197842 -10.082451,10.796763c-2.688649,2.87914 -5.377313,5.758279 -8.065961,8.637419c-0.672158,0.719781 -1.09708,1.729152 -2.01649,2.159358c-0.350251,0.163885 -0.380928,-0.632372 -0.573749,-0.947349c-0.192821,-0.314977 -0.387166,-0.629166 -0.583129,-0.942483c-0.783837,-1.25331 -1.592891,-2.493311 -2.42878,-3.717828c-2.50972,-3.676556 -5.327283,-7.160892 -8.374926,-10.474387c-4.061511,-4.415814 -8.497712,-8.535828 -13.157551,-12.41661c-1.165341,-0.970518 -2.345507,-1.925952 -3.539067,-2.866976c-0.298386,-0.235252 -0.755914,-0.365894 -0.897694,-0.703052c-0.185867,-0.441969 -0.16289,-0.973394 0.004169,-1.421674c0.347575,-0.932637 1.000366,-1.74395 1.500549,-2.615924c0.500183,-0.871975 1.000366,-1.74395 1.500549,-2.615924c2.000732,-3.487885 4.001463,-6.975784 6.002195,-10.463669c6.502378,-11.335643 13.004756,-22.671287 19.507134,-34.00693c20.5075,-35.750879 60.540227,-106.858223 61.522485,-107.252638l-0.000031,-0.000029zm72.088645,77.261841c1.106522,-0.057858 1.008346,1.815946 1.501358,2.729078c2.4654,4.566305 4.713648,9.227918 6.918681,13.9045c7.493286,15.892259 14.183662,32.145962 19.19775,48.85563c1.179482,3.93067 2.265407,7.885181 3.24681,11.861716c0.099949,0.405005 1.408766,5.365309 1.059698,5.903203c-0.713227,1.099056 -2.365606,1.348318 -3.548401,2.022477c-2.365606,1.348318 -4.731196,2.696636 -7.096801,4.044954c-3.548401,2.022477 -7.096801,4.044954 -10.645202,6.067431c-0.046949,0.026761 -4.388365,3.333373 -5.797132,1.958709c-0.692273,-0.675504 -0.402054,-1.819553 -0.611924,-2.727633c-0.209855,-0.908066 -0.425699,-1.814959 -0.647237,-2.720678c-1.329196,-5.434201 -2.868418,-10.824139 -4.584375,-16.165607c-1.429985,-4.451276 -2.983363,-8.868707 -4.638433,-13.253367c-0.331023,-0.876969 -0.666309,-1.752593 -1.005391,-2.626972c-0.80028,-2.063606 -0.431828,-3.767242 -3.393786,-2.241487c-1.259192,0.648629 -2.215736,1.70159 -3.323612,2.552385c-1.107876,0.850795 -2.215736,1.70159 -3.323612,2.552385c-4.431487,3.40318 -8.862975,6.80636 -13.294462,10.20954c-1.107876,0.850795 -2.215736,1.70159 -3.323612,2.552385c-1.107876,0.850795 -2.61446,1.39613 -3.323612,2.552385c-0.42377,0.690931 0.114184,1.59011 0.308933,2.362941c0.202404,0.803227 0.587578,1.557954 0.875853,2.338656c0.288259,0.780687 0.57294,1.562505 0.853716,2.345496c2.246024,6.263415 4.250116,12.601604 5.94613,19.010343c0.42419,1.602904 0.828842,3.207912 1.213768,4.819187c0.192385,0.805302 0.956528,1.678507 0.562097,2.418896c-0.554397,1.040683 -1.955914,1.464148 -2.986086,2.131224c-2.286253,1.480448 -4.703288,2.782142 -7.054939,4.173206c-2.351652,1.391064 -4.703288,2.782142 -7.054939,4.173206c-1.175826,0.695539 -2.351652,1.391064 -3.527477,2.086603c-1.175826,0.695539 -2.257007,1.550098 -3.527477,2.086603c-0.70422,0.297389 -1.65591,0.780115 -2.289597,0.369872c-0.654051,-0.423408 -0.31542,-1.442582 -0.479711,-2.162635c-0.328659,-1.44045 -0.674725,-2.876234 -1.037794,-4.309672c-1.270299,-5.015458 -2.74742,-9.985937 -4.397512,-14.906687c-0.471388,-1.405732 -0.957446,-2.808331 -1.456509,-4.205949c-0.249601,-0.699002 -0.182445,-1.583942 -0.758931,-2.09393c-1.714184,-1.516396 -4.99164,2.2493 -5.142972,2.365503c-5.539363,4.253975 -11.07871,8.50795 -16.618073,12.761926c-1.107876,0.850795 -2.215736,1.70159 -3.323612,2.552385c-1.107876,0.850795 -2.319248,1.59904 -3.323612,2.552385c-0.695073,0.659777 -1.48745,1.357634 -1.733723,2.248041c-0.168553,0.609389 0.412461,1.199015 0.614149,1.799832c0.403251,1.201276 0.794711,2.406846 1.173321,3.614891c1.703963,5.437034 3.155883,10.942015 4.312264,16.49996c0.257022,1.23535 0.499452,2.472704 0.726823,3.712962c0.11367,0.620065 0.555921,1.268508 0.329732,1.861912c-0.683343,1.79272 -4.00445,3.216455 -5.331219,3.972671c-3.548401,2.022477 -7.096801,4.044954 -10.645202,6.067431c-3.541245,2.018399 -7.039616,4.14822 -10.645202,6.067431c-0.999915,0.532241 -1.905916,1.523079 -3.060756,1.495503c-0.575289,-0.013738 -0.150056,-1.049784 -0.229705,-1.574097c-0.238899,-1.572923 -0.505488,-3.142298 -0.798507,-4.70745c-0.879058,-4.695401 -1.99594,-9.353078 -3.333661,-13.955832c-1.783596,-6.136881 -3.958108,-12.180113 -6.532853,-18.074815c-0.431377,-0.987605 -0.867281,-1.955933 -1.322102,-2.934593c-0.226251,-0.486819 -0.601704,-0.933425 -0.687606,-1.456936c-0.097305,-0.593004 -0.192245,-1.285537 0.154241,-1.793536c0.792129,-1.161436 2.062802,-1.979574 3.094202,-2.969368c3.094202,-2.969368 6.188389,-5.938736 9.282591,-8.90809c9.282591,-8.90809 18.565182,-17.816194 27.847758,-26.724283c28.879159,-27.714077 85.149435,-83.064426 86.637492,-83.142232zm-6.733421,208.251062c-0.693813,-0.858995 1.302112,-1.774059 1.926155,-2.677217c1.843286,-2.667714 3.539596,-5.429593 5.093814,-8.248456c2.518104,-4.567063 4.668441,-9.322325 6.331118,-14.210948c1.264652,-3.718329 2.291666,-7.527473 2.681415,-11.415869c0.09228,-0.920702 0.151192,-1.845025 0.168631,-2.769492c0.048054,-2.547162 -0.096512,-5.324581 -1.175655,-7.714298c-0.687575,-1.522607 -1.627053,-2.96569 -3.493596,-3.493466c-1.023031,-0.289275 -2.147615,-0.280617 -3.20711,-0.141332c-6.781879,0.89148 -10.641717,6.482182 -13.556166,11.569393c-0.532633,0.929732 -1.035492,1.873833 -1.530993,2.820767c-0.482822,0.922706 -0.939961,1.856617 -1.403679,2.78758c-3.138631,6.30131 -6.039701,12.773016 -9.773549,18.803999c-4.618677,7.46017 -10.693287,14.138865 -18.277639,19.189741c-10.541535,7.020233 -23.111833,10.412179 -35.883244,11.939852c-6.760722,0.808693 -13.709489,1.215158 -20.507033,0.542129c-6.171075,-0.611006 -13.390818,-2.228736 -16.972696,-7.363831c-0.560402,-0.803413 -0.966375,-1.588021 -1.291969,-2.493712c-0.475091,-1.321543 -0.673481,-2.716914 -0.717987,-4.103528c-0.098829,-3.079445 0.541407,-6.179942 1.326084,-9.159527c1.462218,-5.552378 3.725027,-10.884644 6.457171,-16.006244c1.105667,-2.072664 2.270463,-4.118382 3.46729,-6.1476c0.422852,-0.716962 0.646288,-1.575084 1.281096,-2.14459c1.079812,-0.968743 5.545461,-2.945255 6.742755,-3.508406c3.621251,-1.70325 7.242502,-3.4065 10.863737,-5.10975c3.621251,-1.70325 7.242502,-3.4065 10.863737,-5.10975c1.207078,-0.567745 2.391616,-1.17805 3.621251,-1.70325c0.923269,-0.394358 2.185168,-1.776392 2.831269,-1.052775c0.663664,0.743279 -1.014087,1.682428 -1.515343,2.526569c-1.436846,2.419754 -2.844772,4.854621 -4.190426,7.318509c-3.667033,6.714271 -7.095635,13.820926 -8.256557,21.321623c-0.096091,0.620881 -0.186396,1.243478 -0.233734,1.86911c-0.16331,2.158743 -0.074997,4.992003 2.287606,6.219496c0.697313,0.362288 1.487621,0.59266 2.280746,0.694666c1.031385,0.132645 2.089527,0.108832 3.124273,0.000472c2.271132,-0.237857 5.280039,-1.078835 7.318417,-1.983824c5.249704,-2.330742 8.708189,-6.611249 11.570882,-11.124175c4.009895,-6.321459 6.721894,-13.210764 10.366184,-19.696695c3.832506,-6.820943 8.436793,-13.241274 13.910882,-19.046349c8.234639,-8.732541 18.226381,-15.993994 29.436605,-21.226873c4.58257,-2.139123 9.380938,-3.983175 14.400798,-5.052837c4.27163,-0.910227 8.755838,-1.274189 13.061443,-0.317066c1.875145,0.41684 3.670238,1.07955 5.330006,1.984897c5.844749,3.188106 9.229217,9.124896 11.014416,14.962083c2.05143,6.70766 2.271925,13.815431 1.712208,20.725715c-0.689099,8.507736 -2.577078,16.983015 -5.431371,25.096436c-1.486237,4.224681 -3.253297,8.372987 -5.347242,12.374952c-0.291246,0.55664 -2.906266,5.484288 -3.567473,5.877558c-1.040439,0.61882 -2.454012,0.315792 -3.680894,0.47454c-2.454526,0.317581 -4.908694,0.637424 -7.362519,0.959527c-7.367606,0.967112 -21.352972,3.878636 -22.093127,2.96227l0.000016,-0.000029zm-123.836772,42.648441c0.838035,-0.276166 1.780081,-0.028807 2.670121,-0.043218c0.89004,-0.014411 1.780081,-0.028807 2.670121,-0.043218c7.120307,-0.115258 14.240629,-0.230501 21.360936,-0.345759c28.481243,-0.461017 56.962502,-0.922019 85.443746,-1.383036c0.89004,-0.014411 1.824867,0.213629 2.670121,-0.043218c1.501031,-0.456108 1.742839,-1.968769 2.168709,-3.07488c0.240237,-0.623972 0.47772,-1.248845 0.712527,-1.874563c1.64376,-4.380395 3.154841,-8.802821 4.538577,-13.258561c0.395364,-1.273087 0.780368,-2.549265 1.15498,-3.827647c0.187329,-0.63927 0.009909,-1.486559 0.554241,-1.919713c0.633345,-0.503991 1.631362,-0.354689 2.458104,-0.477359c1.793832,-0.266178 3.609786,-0.3855 5.414679,-0.578249c6.317118,-0.674631 12.634235,-1.349248 18.951353,-2.02388c1.804893,-0.19275 3.609786,-0.3855 5.414679,-0.578249c0.902439,-0.096382 1.963599,-0.769124 2.707332,-0.289132c0.566157,0.365393 -0.089231,1.272658 -0.213682,1.89849c-0.055396,0.278613 -1.128737,4.058964 -1.207203,4.332154c-1.448808,5.044308 -3.039211,10.05437 -4.778129,15.020542c-3.477293,9.930798 -7.545337,19.691973 -12.28736,29.171099c-4.06176,8.119303 -8.644937,16.02977 -13.347089,23.848378c-2.352025,3.910878 -4.770024,7.788369 -7.278079,11.616461c-0.419788,0.640715 -1.710264,2.99859 -2.833276,3.210387c-0.832715,0.157045 -1.65507,-0.357465 -2.482589,-0.53619c-1.65507,-0.357465 -3.310124,-0.714916 -4.965194,-1.072381c-5.792714,-1.25112 -11.585443,-2.502226 -17.378156,-3.753347c-0.827535,-0.178725 -1.65507,-0.357465 -2.482589,-0.53619c-0.827535,-0.178725 -1.683725,-0.269011 -2.482589,-0.53619c-0.563264,-0.188385 -1.477821,-0.271272 -1.563365,-0.816965c-0.102501,-0.653895 0.785564,-1.106211 1.174892,-1.661377c0.778859,-1.110604 1.548213,-2.226518 2.309058,-3.347655c2.664723,-3.926534 5.217611,-7.916478 7.697416,-11.943973c0.04334,-0.07038 2.077316,-3.387324 2.10891,-3.463557c0.186552,-0.449983 0.666838,-1.122454 0.25948,-1.424951c-0.672376,-0.499298 -1.715117,-0.195197 -2.572676,-0.292795c-1.715117,-0.195197 -3.430235,-0.390394 -5.145368,-0.585591c-6.002926,-0.683189 -12.005837,-1.366364 -18.008763,-2.049553c-19.723881,-2.244735 -39.447777,-4.489485 -59.171658,-6.73422c-6.002926,-0.683189 -12.005837,-1.366364 -18.008763,-2.049553c-1.715117,-0.195197 -3.430235,-0.390394 -5.145368,-0.585591c-0.857559,-0.097598 -1.810882,0.082386 -2.572676,-0.292795c-0.280807,-0.138298 0.116144,-0.584703 0.261175,-0.845586c0.191623,-0.344686 0.490942,-0.628923 0.734197,-0.944844c0.973064,-1.263671 1.922188,-2.542911 2.84653,-3.837164c2.774971,-3.885548 7.246516,-11.895818 7.642704,-12.026374l-0.000016,0.000014zm107.831276,72.98474c0.211006,0.517415 -0.696193,0.900782 -1.046817,1.349506c-1.402575,1.794924 -2.832187,3.572003 -4.289691,5.329519c-5.102541,6.15288 -10.550059,12.062551 -16.329052,17.686783c-1.651461,1.60724 -3.329539,3.191326 -5.032989,4.751971c-0.425886,0.390193 -0.693533,1.05538 -1.282433,1.166173c-0.578711,0.108875 -1.100393,-0.396419 -1.640603,-0.61623c-1.681142,-0.684062 -3.328418,-1.457107 -4.988373,-2.183801c-7.205431,-3.15439 -14.410862,-6.308766 -21.616294,-9.463156c-23.833352,-10.433731 -47.666704,-20.867461 -71.500056,-31.301192c-6.651174,-2.911739 -13.302333,-5.823478 -19.953508,-8.735217c-1.662786,-0.727938 -3.325587,-1.455877 -4.988373,-2.183801c-0.554257,-0.242651 -1.319737,-0.259681 -1.662786,-0.727938c-0.174511,-0.238215 0.512457,-0.328372 0.768001,-0.493459c0.511026,-0.330146 1.02034,-0.662768 1.527632,-0.997751c1.521892,-1.004949 3.026781,-2.031693 4.513018,-3.080848c2.724304,-1.923133 5.386382,-3.921339 7.972763,-5.999528c0.705309,-0.566729 1.404986,-1.139383 2.098659,-1.718147c0.231214,-0.192921 0.380166,-0.561978 0.69165,-0.580782c0.182989,-0.011048 3.415845,0.89948 3.534991,0.932451c3.600654,0.996363 7.201309,1.992725 10.801963,2.989088c40.807432,11.292125 122.20219,33.336606 122.422312,33.87636l-0.000016,0zm-80.1213,38.571417c0.786528,1.924306 1.360853,3.922069 1.676413,5.958227c0.311982,2.013046 0.367596,4.052596 0.176004,6.078036c-0.261082,2.760061 -0.973765,5.475072 -2.056439,8.058468c-5.477278,13.069389 -18.981408,21.72587 -32.610642,26.783114c-2.742396,1.0176 -5.536967,1.915291 -8.36791,2.700872c-3.834217,1.06398 -7.741798,1.951582 -11.691941,2.565837c-5.033035,0.782634 -10.144428,1.114969 -15.246969,1.0587c-0.648575,-0.007155 -5.173136,-0.025473 -5.878304,-0.488536c-0.6634,-0.435644 -0.641388,-1.378671 -0.964555,-2.067026c-0.323307,-0.688656 -0.648264,-1.376653 -0.974853,-2.063978c-1.962696,-4.130546 -3.984803,-8.237193 -6.065152,-12.318726c-0.694777,-1.363101 -1.479734,-2.689094 -2.103761,-4.080845c-0.260678,-0.581383 -1.205912,-1.410326 -0.658329,-1.786838c0.761405,-0.523525 1.887777,0.208821 2.834178,0.290763c3.760185,0.325581 7.547702,0.418314 11.319383,0.217693c1.872081,-0.099573 3.690492,-0.26665 5.546503,-0.512292c1.796508,-0.237771 3.618918,-0.547596 5.383348,-0.94121c1.721791,-0.384111 3.442789,-0.851067 5.10237,-1.424093c6.359835,-2.19595 13.114397,-6.225378 14.893327,-12.660936c0.352102,-1.273788 0.476584,-2.540221 0.407016,-3.85189c-0.108334,-2.04214 -0.713507,-4.030744 -1.60487,-5.895046c-2.760503,-5.773663 -7.963352,-10.384989 -13.172142,-14.326091c-8.789829,-6.650604 -19.102296,-12.12911 -30.161359,-14.810076c-5.858968,-1.420343 -12.146171,-2.020102 -18.079482,-0.611679c-4.902378,1.163697 -9.111363,3.815641 -12.406864,7.316133c-1.055715,1.12138 -2.011077,2.320524 -2.889605,3.563702c-0.297935,0.421605 -0.321518,1.245969 -0.866861,1.280572c-0.677805,0.043003 -1.133155,-0.698702 -1.633073,-1.121953c-0.126255,-0.1069 -3.581209,-3.548476 -3.698302,-3.665451c-3.666831,-3.662875 -7.287071,-7.365233 -10.858946,-11.106673c-0.032295,-0.03383 -3.517895,-3.694788 -3.540685,-3.738478c-0.443418,-0.850409 0.451445,-1.766131 0.888531,-2.333719c1.03081,-1.338573 2.199557,-2.590208 3.528971,-3.685987c1.661852,-1.369784 3.579684,-2.457835 5.537901,-3.429397c5.476158,-2.717015 11.441266,-4.113931 17.632487,-4.494708c10.645591,-0.654725 21.473004,0.819999 31.86974,2.809475c13.447941,2.573336 26.798981,6.313345 39.305717,11.564055c4.459131,1.872087 34.441545,18.967383 39.429203,31.169992l-0.000047,-0.000014zm-162.769992,9.103458c-0.149201,-0.978059 -0.692755,-1.869668 -1.039132,-2.80451c-1.039132,-2.80451 -2.07828,-5.609005 -3.117412,-8.413515c-2.771035,-7.478688 -5.54207,-14.957361 -8.313105,-22.436049c-0.692755,-1.869668 -1.38551,-3.739337 -2.07828,-5.609005c-0.346377,-0.934841 -0.888702,-1.826593 -1.039132,-2.80451c-0.073084,-0.475127 -0.053778,-1.146281 0.393404,-1.393325c0.554257,-0.306204 1.290507,0.075088 1.936142,0.106371c0.645635,0.031283 1.291518,0.05833 1.937573,0.081299c2.584219,0.091931 5.171113,0.11759 7.756935,0.081571c2.585821,-0.03602 5.170507,-0.134248 7.75107,-0.289504c0.645137,-0.03881 1.393381,-0.452502 1.934602,-0.127178c0.614802,0.369543 3.008751,4.563829 3.246172,4.961965c3.198523,5.364036 6.397046,10.728072 9.595554,16.092093c10.661738,17.880105 21.323461,35.760224 31.9852,53.640329c3.731608,6.258035 7.463215,12.516083 11.194823,18.774118c0.533085,0.893999 1.165808,1.743535 1.599254,2.682011c0.345382,0.747816 1.317217,1.744336 0.722607,2.345139c-0.071419,0.072154 -7.266474,1.209362 -7.349545,1.222141c-8.594534,1.321386 -17.256677,2.276176 -25.949745,2.832287c-1.241862,0.079438 -2.484363,0.150848 -3.72733,0.213915c-2.49533,0.12662 -4.312512,0.879445 -6.001884,-1.297802c-0.623747,-0.803871 -0.692755,-1.869668 -1.039132,-2.80451c-0.692755,-1.869668 -1.38551,-3.739337 -2.07828,-5.609005c-2.424657,-6.543846 -4.849315,-13.087693 -7.273957,-19.631539c-1.38551,-3.739337 -2.771035,-7.478688 -4.156545,-11.218024c-0.346377,-0.934841 -0.582149,-1.910797 -1.039132,-2.80451c-0.169486,-0.331448 -0.582725,-1.110576 -0.808541,-0.808879c-0.519939,0.694652 -0.296053,1.664712 -0.453903,2.495515c-0.474733,2.498606 -1.00858,4.987695 -1.600809,7.464978c-1.9923,8.333719 -4.645434,16.532817 -7.919452,24.516269c-0.660942,1.611676 -1.347117,3.214595 -2.058197,4.808111c-0.356427,0.798733 -0.606946,1.647668 -1.087964,2.389058c-0.441473,0.680456 -0.823724,1.604206 -1.649392,1.830114c-0.194034,0.053092 -7.236108,-0.759679 -7.420731,-0.782018c-7.409888,-0.896346 -14.751484,-2.173139 -22.037855,-3.696548c-4.855849,-1.015253 -9.684738,-2.139781 -14.480695,-3.372598c-1.198943,-0.308194 -2.585806,-0.268811 -3.590574,-0.944887c-1.514658,-1.019159 1.65045,-3.408976 1.697492,-3.458863c1.791437,-1.899849 3.53566,-3.837393 5.229481,-5.811558c6.59052,-7.681312 12.421129,-15.923342 17.287136,-24.627663c0.796687,-1.425095 1.567441,-2.862482 2.311858,-4.311304c0.371392,-0.722815 0.798865,-1.425109 1.094419,-2.17696c0.288523,-0.733977 0.820519,-1.49878 0.651157,-2.263568c-0.228305,-1.030951 -1.174861,-1.805514 -1.753246,-2.713179c-0.575896,-0.903773 -1.145755,-1.810823 -1.709533,-2.721036c-1.676755,-2.70714 -3.299406,-5.442673 -4.865867,-8.205166c-5.562309,-9.809287 -10.431085,-19.957263 -14.476961,-30.37737c-1.422036,-3.662417 -2.741867,-7.358464 -3.953612,-11.084349c-0.299693,-0.921518 -0.702104,-1.821985 -0.879135,-2.769964c-0.096543,-0.517 -0.436729,-1.328755 0.06823,-1.572451c0.572535,-0.276295 1.195987,0.45223 1.796539,0.672528c0.600552,0.220298 1.202785,0.43676 1.806666,0.649216c2.415604,0.849836 4.857544,1.636391 7.32285,2.355442c3.081711,0.898836 6.19973,1.691945 9.346621,2.373488c0.629347,0.136294 1.259846,0.268181 1.891371,0.395603c0.631525,0.127422 1.401035,-0.011835 1.897718,0.368942c0.721767,0.553349 1.029783,1.44885 1.469623,2.212622c0.511586,0.888346 0.914604,1.826135 1.380018,2.735718c0.93534,1.827939 1.892351,3.646346 2.870751,5.455109c3.977087,7.352468 8.305607,14.543483 12.95244,21.555487c2.966516,4.476434 6.062632,8.880098 9.279916,13.207444c0.029821,0.040098 3.900083,5.206648 3.964735,5.215864c0.820239,0.116889 0.259355,-1.508926 0.350671,-2.267847c0.101023,-0.83959 0.353689,-1.689083 0.22608,-2.52561l-0.000031,0.000057zm-140.491543,-20.929598c1.006962,0.233034 0.907339,1.718777 1.391608,2.563733c1.935628,3.377321 4.18103,6.610806 6.667291,9.666896c3.102105,3.813079 6.583115,7.370642 10.421844,10.56815c3.751131,3.124538 7.889723,5.919374 12.470583,7.930875c1.637771,0.719166 3.630958,1.466037 5.410277,1.841004c0.88332,0.186138 1.783783,0.370416 2.68994,0.362145c0.830397,-0.00757 1.703715,-0.076433 2.451321,-0.409026c2.531545,-1.126203 2.969223,-4.024562 2.263634,-6.241162c-0.284012,-0.89221 -0.81285,-1.706928 -1.322958,-2.509482c-2.000592,-3.147507 -4.953309,-5.816623 -7.620957,-8.477569c-3.930122,-3.920237 -7.854193,-7.879185 -11.33903,-12.148157c-6.961166,-8.527556 -11.501967,-18.982524 -9.864803,-29.782921c0.381986,-2.519986 1.083623,-4.986436 2.077051,-7.360224c1.800102,-4.301358 4.512489,-8.352093 7.696591,-11.901686c1.865796,-2.079963 3.958777,-4.046271 6.35982,-5.607345c1.534944,-0.997965 3.207204,-1.821442 4.99556,-2.363342c1.0704,-0.32435 2.12512,-0.531997 3.246997,-0.626576c6.450793,-0.543847 12.197662,3.059611 17.228675,6.285168c3.888353,2.492953 7.589144,5.193453 11.08848,8.135917c2.971121,2.498305 5.739806,5.188731 8.422404,7.94716c0.063439,0.065242 2.857139,2.960596 2.883927,3.022575c0.396111,0.916094 0.087613,3.840427 0.03203,4.70599c-0.262078,4.081346 -0.524155,8.162678 -0.786233,12.244024c-0.104834,1.632541 -0.101381,3.274027 -0.314487,4.89761c-0.079446,0.605225 0.263291,1.783962 -0.399347,1.79159c-0.857092,0.009874 -1.137557,-1.179825 -1.70933,-1.76729c-1.665462,-1.711193 -3.346059,-3.410307 -5.061535,-5.079297c-5.540561,-5.390367 -11.536689,-10.707106 -18.502568,-14.528987c-2.510855,-1.377598 -6.109223,-3.223453 -8.957682,-1.46183c-0.598779,0.370316 -1.117521,0.862186 -1.536484,1.402555c-0.474655,0.612194 -0.83172,1.304442 -1.110411,2.011343c-0.3003,0.761726 -0.530331,1.557611 -0.614584,2.364172c-0.268222,2.567526 0.721783,4.905981 2.047027,7.102633c1.25003,2.071963 2.84471,3.962167 4.495517,5.772075c2.200102,2.412141 4.555922,4.704831 6.960606,6.9439c3.784997,3.52432 7.505046,7.09781 10.804919,11.022856c6.475777,7.702635 11.564177,16.868945 12.312437,26.721335c0.461541,6.077148 -0.402489,13.02693 -4.910763,17.809468c-5.521862,5.857767 -14.758749,6.305145 -22.514968,5.208451c-6.344372,-0.897076 -12.450111,-2.94524 -18.210234,-5.508401c-10.103997,-4.496111 -19.391597,-10.696116 -27.368903,-17.946435c-4.037616,-3.669658 -7.745454,-7.668532 -10.940928,-11.987034c-0.307082,-0.415008 -3.380828,-4.651581 -3.408394,-5.287732c-0.032979,-0.761253 0.903045,-1.277352 1.353759,-1.916493c0.450792,-0.639241 0.901054,-1.278811 1.350788,-1.918697c3.150034,-4.481929 8.567357,-13.678034 9.37148,-13.491939l0.000031,0zm25.631711,-87.261187c0.204566,3.526996 -0.783246,7.154638 -2.178167,10.41361c-1.116992,2.609642 -2.58999,5.147917 -4.528248,7.322602c-2.29694,2.577128 -5.955028,5.053925 -9.782432,4.082534c-0.595154,-0.151049 -1.163583,-0.383582 -1.690725,-0.678481c-2.833167,-1.584916 -3.994059,-4.736901 -4.646865,-7.570734c-1.159492,-5.033417 -0.15253,-10.403707 2.313959,-14.988372c1.187789,-2.207828 2.765777,-4.312105 4.794183,-5.937677c2.909782,-2.331901 7.623586,-4.137372 11.239532,-2.042383c0.526426,0.305002 1.016296,0.678452 1.435741,1.10146c1.171874,1.181814 2.956855,6.811884 3.043006,8.297441l0.000016,0zm-61.333802,-5.946907c-0.009194,-0.010003 -0.011372,-2.377896 -0.011356,-2.387927c0.002847,-2.786149 0.058647,-5.572141 0.197332,-8.355499c0.257411,-5.166091 0.762167,-10.32155 1.459822,-15.452666c0.214569,-1.578132 0.447945,-3.154118 0.699615,-4.7276c0.009272,-0.058001 0.372777,-2.301363 0.391195,-2.358104c0.088842,-0.273676 0.192992,-0.575774 0.430304,-0.759951c0.197317,-0.153138 0.503154,-0.106514 0.754731,-0.159764c0.503154,-0.106514 1.006308,-0.213014 1.509463,-0.319528c2.515755,-0.532541 5.031526,-1.065097 7.547282,-1.597638c10.566191,-2.236693 21.132398,-4.473386 31.69859,-6.710078c3.01891,-0.639055 6.037835,-1.27811 9.056744,-1.917165c0.754731,-0.159764 1.509463,-0.319528 2.264178,-0.479291c0.251577,-0.05325 0.571867,-0.327384 0.754731,-0.159764c0.179567,0.164586 -0.127469,0.451386 -0.190067,0.67735c-0.250364,0.903859 -0.488702,1.810565 -0.712542,2.720306c-0.838471,3.407659 -1.500175,6.870572 -1.73198,10.361806c-0.092809,1.397876 -0.091689,2.797011 -0.065648,4.196747c0.010641,0.572439 0.268238,1.498422 -0.259915,1.958595c-0.412445,0.359354 -1.010182,0.478318 -1.515281,0.717463c-1.010182,0.478318 -2.020379,0.956622 -3.030561,1.43494c-3.283103,1.55452 -6.566221,3.10904 -9.849324,4.663559c-13.132427,6.218065 -39.214028,18.853843 -39.397297,18.654209l-0.000016,0zm-12.131579,-0.991154c-0.648481,3.29213 -1.469063,6.600388 -2.838098,9.709055c-0.240314,0.545693 -0.498347,1.085303 -0.780399,1.613895c-0.185198,0.34709 -0.36072,0.65567 -0.571229,0.989994c-1.020387,1.620477 -3.062623,3.937625 -5.430375,3.234587c-1.335185,-0.396447 -2.199324,-1.677663 -2.764579,-2.778006c-1.473154,-2.86772 -1.889784,-6.231546 -2.132292,-9.358717c-0.427115,-5.507571 -0.085233,-11.095067 0.732548,-16.559335c0.700471,-4.680446 1.760635,-9.40577 3.716954,-13.790802c0.590239,-1.322988 1.275153,-2.61674 2.116689,-3.821022c0.513873,-0.73538 1.083763,-1.448235 1.756855,-2.067942c1.39629,-1.285566 3.744706,-2.372515 5.390302,-0.816979c0.470921,0.445146 0.812725,1.000627 1.092179,1.561575c1.489488,2.989889 1.60879,6.606255 1.701786,9.83765c0.095251,3.30956 -1.147964,17.969532 -1.99034,22.246046zm78.123104,-70.134279c-6.57053,7.506436 -15.944562,13.37598 -26.190821,15.62063c-0.971058,0.212727 -1.950174,0.395131 -2.936134,0.539038c-5.336275,0.778856 -11.791113,0.593948 -15.65274,-3.404826c-0.800405,-0.828828 -1.439957,-1.780184 -1.932719,-2.790199c-1.206892,-2.473777 -1.513507,-5.205002 -1.392012,-7.890461c0.196228,-4.337091 1.421274,-8.600039 2.967558,-12.680627c2.134936,-5.634006 5.057148,-10.996324 8.286877,-16.16077c3.556366,-5.686726 7.534432,-11.161769 12.115805,-16.196002c2.569145,-2.823099 5.315461,-5.526962 8.358669,-7.924006c2.202093,-1.734533 4.567185,-3.33914 7.185395,-4.503567c1.738187,-0.773045 3.597823,-1.380918 5.523278,-1.590325c0.810439,-0.088139 1.629526,-0.098457 2.442143,-0.028793c6.47503,0.555066 10.573907,6.466655 12.519398,11.610994c0.405694,1.072724 0.744029,2.168388 1.02146,3.275043c0.291837,1.164126 0.510403,2.343307 0.672921,3.528398c0.209466,1.527487 0.334212,3.067825 0.360191,4.607347c0.031408,1.861139 -0.080924,3.724153 -0.307487,5.573429c-0.72505,5.918257 -9.763858,24.669879 -13.04178,28.414697zm-6.628696,-11.225208c1.159258,-0.922176 2.085669,-2.061273 2.837243,-3.284674c0.938809,-1.528188 1.704259,-3.219446 1.888431,-4.980783c0.462459,-4.422669 -2.562642,-8.272326 -6.684745,-10.274754c-1.030436,-0.500557 -2.131343,-0.875195 -3.270673,-1.101746c-0.766523,-0.152422 -1.544682,-0.237957 -2.329748,-0.221514c-5.5323,0.11593 -9.592193,4.433559 -11.992287,8.594716c-0.8014,1.389418 -1.4975,2.858432 -1.859978,4.401475c-0.203026,0.864233 -0.288492,1.757817 -0.245806,2.641426c0.030397,0.629381 0.1331,1.25746 0.333699,1.860624c1.00774,3.030045 17.410824,5.477991 21.323881,2.365231l-0.000016,0z"/>
 </g>
</svg>